# xmcd
#
# Track frame offsets:
#	182
#	12035
#	24055
#	33232
#	43682
#	56487
#	70020
#	81667
#	93150
#	102830
#	113260
#	123917
#	133572
#	146032
#	157157
#	167922
#	179310
#	190407
#	199287
#	209940
#
# Disc length: 2921 seconds
#
# Revision: 0
# Processed by: cddbd v1.5.1PL2 Copyright (c) Steve Scherf et al.
# Submitted via: EasyCDDAExtractor 9.1.3.1
#
DISCID=150b6714
DTITLE=Dick Rivers - Je ne suis plus rien sans toi
DYEAR=1999
DGENRE=Chanson
TTITLE0=Je ne suis plus rien sans toi
TTITLE1=Entre-nous c'est fini
TTITLE2=Si un jour
TTITLE3=Tout ira tres bien
TTITLE4=Chaque nuit
TTITLE5=Whole lotta shakin' goin' on
TTITLE6=Ces mots qu'on oublie un jour
TTITLE7=Je t'aime trop
TTITLE8=La seule qui me tient
TTITLE9=Mais je t'aime
TTITLE10=Tobacco road
TTITLE11=Moi je peux
TTITLE12=Prends garde Dick
TTITLE13=Pour toi
TTITLE14=On devine bien des choses
TTITLE15=Io prego (Je ne suis plus rein sans toi - En italien)
TTITLE16=Non voglio piu saperne (Entre nous c'est fini - En italien)
TTITLE17=Se l'amore somigliasse a te (Si un jour - En italien)
TTITLE18=Per te (Pour toi - En italien)
TTITLE19=Thanks to you ( Si un jour - En anglais)
EXTD=
EXTT0=
EXTT1=
EXTT2=
EXTT3=
EXTT4=
EXTT5=
EXTT6=
EXTT7=
EXTT8=
EXTT9=
EXTT10=
EXTT11=
EXTT12=
EXTT13=
EXTT14=
EXTT15=
EXTT16=
EXTT17=
EXTT18=
EXTT19=
PLAYORDER=
